<svg width="353" height="359" viewBox="0 0 353 359" fill="none" xmlns="http://www.w3.org/2000/svg">
<path d="M103 172V330.5L12 246.5V76.5L75 17L177 117.5L279.5 17L340.5 76.5V246.5L251.5 330.5V172L177 246.5L103 172Z" fill="#60D0CA" stroke="black" stroke-width="24"/>
<path d="M171.5 174L50.5 56L73.5 33L176.5 132V181L171.5 174Z" fill="#2D9993"/>
<path d="M178 228V180.166L302.32 56L326 80.426L178 228Z" fill="#2D9993"/>
<path d="M58 106L91 145.475V305L58 245.689V106Z" fill="#2D9993"/>
<path d="M303.213 232.053V104.395V89.1974L318.705 74L328 83.1184V244.211L265 305L303.213 232.053Z" fill="#2D9993"/>
</svg>
